<svg width="100%" viewBox="0 0 680 360" role="img">
<title>Four-step interpolation process</title>
<desc>Flowchart showing the four steps: gather ingredients, overlay census blocks, calculate weights, allocate votes</desc>
<defs>
<marker id="arrow2" viewBox="0 0 10 10" refX="8" refY="5" markerWidth="6" markerHeight="6" orient="auto-start-reverse"><path d="M2 1L8 5L2 9" fill="none" stroke="context-stroke" stroke-width="1.5" stroke-linecap="round" stroke-linejoin="round"/></marker>
</defs>
<rect x="40" y="60" width="130" height="70" rx="8" fill="#E6F1FB" stroke="#185FA5" stroke-width="0.5"/>
<text font-size="14" font-weight="500" x="105" y="88" text-anchor="middle" fill="#0C447C">Step 1</text>
<text font-size="12" x="105" y="106" text-anchor="middle" fill="#185FA5">Gather the</text>
<text font-size="12" x="105" y="120" text-anchor="middle" fill="#185FA5">three ingredients</text>
<rect x="220" y="60" width="130" height="70" rx="8" fill="#E1F5EE" stroke="#0F6E56" stroke-width="0.5"/>
<text font-size="14" font-weight="500" x="285" y="88" text-anchor="middle" fill="#085041">Step 2</text>
<text font-size="12" x="285" y="106" text-anchor="middle" fill="#0F6E56">Overlay census</text>
<text font-size="12" x="285" y="120" text-anchor="middle" fill="#0F6E56">blocks on both maps</text>
<rect x="400" y="60" width="130" height="70" rx="8" fill="#EEEDFE" stroke="#534AB7" stroke-width="0.5"/>
<text font-size="14" font-weight="500" x="465" y="88" text-anchor="middle" fill="#3C3489">Step 3</text>
<text font-size="12" x="465" y="106" text-anchor="middle" fill="#534AB7">Calculate</text>
<text font-size="12" x="465" y="120" text-anchor="middle" fill="#534AB7">population weights</text>
<rect x="220" y="220" width="130" height="70" rx="8" fill="#FAEEDA" stroke="#854F0B" stroke-width="0.5"/>
<text font-size="14" font-weight="500" x="285" y="248" text-anchor="middle" fill="#633806">Step 4</text>
<text font-size="12" x="285" y="266" text-anchor="middle" fill="#854F0B">Allocate votes</text>
<text font-size="12" x="285" y="280" text-anchor="middle" fill="#854F0B">and validate</text>
<line x1="170" y1="95" x2="218" y2="95" stroke="#185FA5" stroke-width="1.5" marker-end="url(#arrow2)"/>
<line x1="350" y1="95" x2="398" y2="95" stroke="#0F6E56" stroke-width="1.5" marker-end="url(#arrow2)"/>
<path d="M465 130 L465 175 L285 175 L285 218" fill="none" stroke="#534AB7" stroke-width="1.5" marker-end="url(#arrow2)"/>
<text font-size="12" x="105" y="155" text-anchor="middle" fill="#5F5E5A">Precinct boundaries</text>
<text font-size="12" x="105" y="170" text-anchor="middle" fill="#5F5E5A">District boundaries</text>
<text font-size="12" x="105" y="185" text-anchor="middle" fill="#5F5E5A">Census block counts</text>
<text font-size="12" x="285" y="155" text-anchor="middle" fill="#5F5E5A">Tag each block with</text>
<text font-size="12" x="285" y="170" text-anchor="middle" fill="#5F5E5A">precinct + district ID</text>
<text font-size="12" x="465" y="155" text-anchor="middle" fill="#5F5E5A">weight = block pop</text>
<text font-size="12" x="465" y="170" text-anchor="middle" fill="#5F5E5A">/ precinct total pop</text>
<text font-size="12" x="285" y="315" text-anchor="middle" fill="#5F5E5A">votes x weight = allocated votes</text>
<text font-size="12" x="285" y="330" text-anchor="middle" fill="#5F5E5A">total must match original</text>
</svg>